<svg xmlns="http://www.w3.org/2000/svg" width="102" height="102" fill="none" viewBox="0 0 102 102"><rect width="101.617" height="101.617" fill="#f6faff" rx="50.809"/><path fill="#dcedfd" fill-rule="evenodd" d="M51.742 33.838h22.994c3.162 0 5.748 2.627 5.748 5.838v29.192c0 3.212-2.586 5.838-5.748 5.838H28.748c-3.161 0-5.748-2.626-5.748-5.838l.029-35.03c0-3.212 2.558-5.838 5.72-5.838h17.245z" clip-rule="evenodd"/><path fill="#cfddee" stroke="#cfddee" stroke-width=".709" d="M45.977 44.398h2.381c.205 0 .349.066.44.158.091.09.158.234.158.44 0 .204-.067.348-.158.44-.091.09-.235.157-.44.157h-2.381c-2.006 0-3.689 1.683-3.689 3.688V59.76c0 2.005 1.683 3.687 3.689 3.687h10.477c2.005 0 3.688-1.682 3.689-3.687V58.33c0-.205.066-.35.157-.44.091-.092.235-.158.44-.158s.349.067.44.158c.09.09.158.235.158.44v1.429c0 2.661-2.223 4.883-4.884 4.884H45.977c-2.662 0-4.884-2.223-4.884-4.884V49.28c0-2.661 2.222-4.883 4.884-4.883Zm10.731.057c.226-.112.445-.069.638.124l5.715 5.715a.567.567 0 0 1 0 .832l-5.715 5.715c-.193.193-.412.236-.638.124l-.035-.018-.038-.01c-.163-.04-.303-.223-.303-.512v-3.212h-2.26c-2.728 0-5.056 1.721-5.863 4.346l-.002.008-.003.01a.56.56 0 0 1-.513.398c-.205 0-.47-.166-.62-.447a7.8 7.8 0 0 1-.263-2.055c0-3.995 3.27-7.266 7.264-7.266h2.26v-3.212c0-.29.14-.472.303-.513l.038-.01z"/><path fill="url(#a)" d="M56.454 64.4H45.977c-2.858 0-5.239-2.382-5.239-5.24V48.685c0-2.858 2.381-5.239 5.239-5.239h2.38c.572 0 .953.381.953.953 0 .571-.38.952-.952.952h-2.381c-1.81 0-3.334 1.524-3.334 3.334V59.16c0 1.81 1.524 3.333 3.334 3.333h10.477c1.81 0 3.333-1.524 3.333-3.333v-1.429c0-.571.381-.952.953-.952.571 0 .952.38.952.952v1.429c0 2.857-2.38 5.238-5.238 5.238m-8.763-6.668c-.38 0-.762-.286-.952-.667a8.1 8.1 0 0 1-.286-2.19c0-4.191 3.429-7.62 7.62-7.62h1.904v-2.857c0-.381.191-.762.572-.858.381-.19.762-.095 1.048.191l5.714 5.715a.92.92 0 0 1 0 1.333l-5.714 5.715c-.286.286-.667.38-1.048.19-.381-.095-.572-.476-.572-.857V52.97h-1.904c-2.572 0-4.763 1.619-5.525 4.095a.915.915 0 0 1-.857.667"/><defs><linearGradient id="a" x1="51.914" x2="52.127" y1="34.694" y2="68.833" gradientUnits="userSpaceOnUse"><stop stop-color="#76afff"/><stop offset=".781" stop-color="#1d7aff"/></linearGradient></defs></svg>