<svg width="36" height="24" viewBox="0 0 36 24" fill="none" xmlns="http://www.w3.org/2000/svg">
<g clip-path="url(#clip0_20306_34592)">
<path d="M3.85572 15.6364C3.85572 16.9994 4.1549 18.0459 4.54593 18.679C5.05862 19.5083 5.82331 19.8596 6.6029 19.8596C7.60841 19.8596 8.52828 19.6101 10.301 17.1583C11.7211 15.1932 13.3945 12.4349 14.5204 10.7057L16.4272 7.776C17.7517 5.74138 19.2848 3.47959 21.0426 1.94648C22.4777 0.695172 24.0257 0 25.5836 0C28.1992 0 30.6906 1.51572 32.5974 4.35848C34.6841 7.47186 35.6971 11.3934 35.6971 15.4403C35.6971 17.8461 35.2229 19.6138 34.416 21.0103C33.6364 22.361 32.117 23.7103 29.561 23.7103V19.8596C31.7495 19.8596 32.2957 17.8486 32.2957 15.547C32.2957 12.2673 31.531 8.62759 29.8465 6.0269C28.651 4.18221 27.1018 3.05503 25.3974 3.05503C23.5539 3.05503 22.0705 4.44538 20.4033 6.92441C19.517 8.24152 18.607 9.84662 17.5854 11.6578L16.4607 13.6502C14.2014 17.6561 13.6291 18.5686 12.4994 20.0743C10.5194 22.711 8.82869 23.7103 6.6029 23.7103C3.96248 23.7103 2.29283 22.567 1.25876 20.844C0.414621 19.44 0 17.5978 0 15.4986L3.85572 15.6364Z" fill="#0081FB"/>
<path d="M3.04102 4.63034C4.80874 1.90552 7.35977 0 10.2857 0C11.9802 0 13.6647 0.501517 15.4238 1.93779C17.3479 3.50814 19.3987 6.09393 21.9572 10.3556L22.8745 11.885C25.0892 15.5743 26.3492 17.4724 27.0865 18.3674C28.0349 19.517 28.6991 19.8596 29.5618 19.8596C31.7504 19.8596 32.2966 17.8486 32.2966 15.547L35.698 15.4403C35.698 17.8461 35.2238 19.6138 34.4169 21.0103C33.6373 22.361 32.1178 23.7103 29.5618 23.7103C27.9729 23.7103 26.5652 23.3652 25.0085 21.8967C23.8118 20.7695 22.4127 18.7672 21.3365 16.9672L18.1349 11.6193C16.5286 8.93545 15.0551 6.93434 14.2023 6.02814C13.2849 5.05366 12.1056 3.87683 10.2236 3.87683C8.70046 3.87683 7.40695 4.94565 6.32446 6.58055L3.04102 4.63034Z" fill="url(#paint0_linear_20306_34592)"/>
<path d="M10.2228 3.87683C8.69959 3.87683 7.40607 4.94565 6.32359 6.58055C4.79297 8.89076 3.85572 12.3319 3.85572 15.6364C3.85572 16.9994 4.1549 18.0459 4.54593 18.679L1.25876 20.844C0.414621 19.44 0 17.5978 0 15.4986C0 11.6814 1.04772 7.70276 3.04014 4.63034C4.80786 1.90552 7.3589 0 10.2848 0L10.2228 3.87683Z" fill="url(#paint1_linear_20306_34592)"/>
</g>
<defs>
<linearGradient id="paint0_linear_20306_34592" x1="7.57329" y1="14.5241" x2="32.1526" y2="15.7655" gradientUnits="userSpaceOnUse">
<stop stop-color="#0064E1"/>
<stop offset="0.4" stop-color="#0064E1"/>
<stop offset="0.83" stop-color="#0073EE"/>
<stop offset="1" stop-color="#0082FB"/>
</linearGradient>
<linearGradient id="paint1_linear_20306_34592" x1="5.58621" y1="17.2552" x2="5.58621" y2="8.1931" gradientUnits="userSpaceOnUse">
<stop stop-color="#0082FB"/>
<stop offset="1" stop-color="#0064E0"/>
</linearGradient>
<clipPath id="clip0_20306_34592">
<rect width="36" height="23.7103" fill="white"/>
</clipPath>
</defs>
</svg>
