<svg width="34" height="24" viewBox="0 0 34 24" fill="none" xmlns="http://www.w3.org/2000/svg">
<g clip-path="url(#clip0_20306_34631)">
<path d="M9.64368 0H4.82227V4.7766H9.64368V0Z" fill="#FFD800"/>
<path d="M28.9308 0H24.1094V4.7766H28.9308V0Z" fill="#FFD800"/>
<path d="M14.4651 4.77588H4.82227V9.55248H14.4651V4.77588Z" fill="#FFAF00"/>
<path d="M28.9319 4.77588H19.2891V9.55248H28.9319V4.77588Z" fill="#FFAF00"/>
<path d="M28.9322 9.55225H4.82227V14.3286H28.9322V9.55225Z" fill="#FF8205"/>
<path d="M9.64368 14.3301H4.82227V19.1067H9.64368V14.3301Z" fill="#FA500F"/>
<path d="M19.2863 14.3301H14.4648V19.1067H19.2863V14.3301Z" fill="#FA500F"/>
<path d="M28.9308 14.3301H24.1094V19.1067H28.9308V14.3301Z" fill="#FA500F"/>
<path d="M14.4671 19.1094H0V23.886H14.4671V19.1094Z" fill="#E10500"/>
<path d="M33.7562 19.1094H19.2891V23.886H33.7562V19.1094Z" fill="#E10500"/>
</g>
<defs>
<clipPath id="clip0_20306_34631">
<rect width="34" height="23.9845" fill="white"/>
</clipPath>
</defs>
</svg>
