<svg width="34" height="34" viewBox="0 0 34 34" fill="none" xmlns="http://www.w3.org/2000/svg">
<g clip-path="url(#clip0_20306_34587)">
<path d="M31.4849 13.9327C32.2502 11.6365 31.9875 9.12332 30.7652 7.03278C28.926 3.83413 25.2247 2.18911 21.6148 2.95451C20.8182 2.06183 19.841 1.34864 18.748 0.862192C17.655 0.375747 16.471 0.127162 15.2746 0.13291C11.5848 0.13291 8.30622 2.50899 7.16384 6.01604C4.78776 6.50725 2.74291 7.99229 1.54341 10.0943C-0.307197 13.2929 0.115479 17.314 2.59436 20.0557C1.82903 22.3519 2.09173 24.8651 3.31407 26.9442C5.15326 30.1543 8.85454 31.7993 12.4759 31.0339C14.0752 32.8388 16.3828 33.8784 18.8046 33.867C22.4944 33.867 25.773 31.4908 26.9154 27.9838C29.2915 27.4926 31.3363 26.0075 32.5244 23.9056C34.3864 20.7069 33.9638 16.6857 31.4849 13.9441V13.9327ZM28.8574 8.14084C29.5885 9.42029 29.8627 10.9168 29.6113 12.3676C29.5657 12.3333 29.4743 12.2876 29.4172 12.2534L22.7 8.36928C22.531 8.27379 22.3401 8.22361 22.146 8.22361C21.9518 8.22361 21.761 8.27379 21.5919 8.36928L13.7211 12.916V9.58026L20.2211 5.82187C23.2484 4.07405 27.1096 5.11358 28.8574 8.14084ZM13.7211 15.075L17.0339 13.1558L20.3467 15.075V18.902L17.0339 20.8211L13.7211 18.902V15.075ZM15.2632 2.3376C16.7483 2.3376 18.1763 2.85171 19.3186 3.79986C19.273 3.82271 19.1816 3.87982 19.113 3.91408L12.3959 7.78676C12.0532 7.981 11.8475 8.34657 11.8475 8.74633V17.8396L8.95734 16.1717V8.65489C8.95734 5.15926 11.779 2.33766 15.2746 2.32624L15.2632 2.3376ZM3.46255 11.2025C4.20511 9.92298 5.35892 8.94057 6.75258 8.42652V16.4116C6.75258 16.8114 6.95824 17.1656 7.30097 17.3712L15.1604 21.9064L12.2588 23.5857L5.77017 19.8387C2.75433 18.0909 1.71474 14.2297 3.46255 11.2024V11.2025ZM5.23328 25.859C4.49072 24.591 4.22795 23.0831 4.4793 21.6323C4.52499 21.6665 4.61636 21.7122 4.67347 21.7465L11.3906 25.6306C11.5596 25.7261 11.7505 25.7762 11.9447 25.7762C12.1388 25.7762 12.3297 25.7261 12.4987 25.6306L20.3582 21.0839V24.4197L13.8581 28.1666C10.8309 29.903 6.96967 28.8749 5.22185 25.859H5.23328ZM18.816 31.6623C17.3423 31.6623 15.903 31.1482 14.772 30.2C14.8416 30.1639 14.9102 30.1258 14.9777 30.0858L21.6948 26.2132C22.0374 26.019 22.2545 25.6534 22.2431 25.2536V16.1717L25.1333 17.8395V25.3449C25.1333 28.8405 22.3002 31.6736 18.816 31.6736V31.6622V31.6623ZM30.628 22.7974C29.8855 24.0769 28.7202 25.0593 27.338 25.5619V17.5768C27.338 17.177 27.1323 16.8114 26.7897 16.6173L18.9188 12.0706L21.809 10.4028L28.3091 14.1497C31.3363 15.8975 32.3645 19.7587 30.6167 22.786L30.6281 22.7974H30.628Z" fill="black"/>
</g>
<defs>
<clipPath id="clip0_20306_34587">
<rect width="34" height="34" fill="white"/>
</clipPath>
</defs>
</svg>
